<svg id="Layer_1" data-name="Layer 1" xmlns="http://www.w3.org/2000/svg" viewBox="0 0 512 512"><defs><style>.cls-1{fill:none;}.cls-2{fill:#1a1a1a;}.cls-3{fill:#e6e6e6;stroke-width:0.13px;}.cls-10,.cls-3{stroke:#000;}.cls-4{fill:#ccc;}.cls-5{fill:#999;}.cls-6{fill:#b3b3b3;}.cls-7{fill:#424242;}.cls-8{fill:#595959;}.cls-9{fill:#636363;}.cls-10{fill:#000b4d;stroke-miterlimit:10;}</style></defs><title>laptop2</title><g id="Layer_1-2" data-name="Layer_1"><rect class="cls-1" width="512" height="512"/><g id="_275676976" data-name=" 275676976"><rect id="_394806096" data-name=" 394806096" x="89.12" y="343.6" width="332.05" height="14.31"/><path id="_394805568" data-name=" 394805568" class="cls-2" d="M94.89,136.35h320.5a5.79,5.79,0,0,1,5.77,5.77V347.57a5.79,5.79,0,0,1-5.77,5.77H94.89a5.79,5.79,0,0,1-5.77-5.77V142.12A5.79,5.79,0,0,1,94.89,136.35Z" transform="translate(0 0)"/><rect id="_394805856" data-name=" 394805856" class="cls-3" x="99.73" y="148.52" width="312.42" height="194.21"/><rect id="_394805928" data-name=" 394805928" class="cls-4" x="50.86" y="357.85" width="410.28" height="10.95"/><path id="_394805712" data-name=" 394805712" class="cls-5" d="M227.68,357.85h56.63v1.71a3.84,3.84,0,0,1-3.83,3.83h-49a3.84,3.84,0,0,1-3.83-3.83v-1.71h0Z" transform="translate(0 0)"/><path id="_394805496" data-name=" 394805496" class="cls-6" d="M256,368.8H460.63a.17.17,0,0,1,.17.17c0,3.18-14,6-22.38,6.67H73.58c-8.34-.7-22.38-3.49-22.38-6.67a.17.17,0,0,1,.17-.17H256Z" transform="translate(0 0)"/><circle id="_275677048" data-name=" 275677048" class="cls-7" cx="255.13" cy="142.18" r="2.23" transform="translate(-26.51 219.56) rotate(-44.49)"/><circle id="_275677096" data-name=" 275677096" class="cls-8" cx="255.13" cy="142.18" r="1.72" transform="translate(-26.51 219.56) rotate(-44.49)"/><path id="_275676280" data-name=" 275676280" class="cls-9" d="M256.36,141a1.72,1.72,0,0,1-.44,2.74,2.51,2.51,0,0,1-1.13-1.32,2.46,2.46,0,0,1,0-1.91,1.72,1.72,0,0,1,1.54.49h0Z" transform="translate(0 0)"/></g></g><rect class="cls-10" x="99.73" y="148.52" width="312.42" height="194.21"/></svg>