<svg id="Layer_1" data-name="Layer 1" xmlns="http://www.w3.org/2000/svg" viewBox="0 0 189 171"><defs><style>.cls-1{fill:#fff;}.cls-2{fill:#ffc36a;}.cls-3{fill:#ffc971;}.cls-4{fill:#ffcf78;}</style></defs><title>monitor_on_desk_orange_white</title><path class="cls-1" d="M55.9,20.5V75c0,.7,1.1,2,1.8,2h86.2V20H57.7C57,20,55.9,19.7,55.9,20.5Zm2,1.5h84v1h-84Zm0,3h84V75h-84Z" transform="translate(-4.9 -15)"/><circle class="cls-1" cx="95.9" cy="68.1" r="1.5"/><path class="cls-1" d="M124.9,94V93h-11V88H148c.9,0,.9-1.3.9-2.2V16.2c0-.9,0-1.2-.9-1.2H52.8c-.9,0-1.9.3-1.9,1.2V85.8c0,.9,1,2.2,1.9,2.2H85.9v5h-11v1H4.9v11h69v81h10V105h100v81h10V94Zm-72-77h94V79h-94Zm0,69V81h94v5h-94Zm59,2v5h-24V88Zm80,11.2V184h-6V103H81.9v81h-6V103H6.9V96h185Z" transform="translate(-4.9 -15)"/><path class="cls-1" d="M29.3,124H26.9v9.9h19V124H29.3Zm14.6,8h-15v-6h15Z" transform="translate(-4.9 -15)"/><path class="cls-1" d="M4.9,147h62V112H4.9Zm2-33h58v31H6.9Z" transform="translate(-4.9 -15)"/><path class="cls-1" d="M4.9,186h62V151H4.9Zm2-33h58v31H6.9Z" transform="translate(-4.9 -15)"/><path class="cls-1" d="M29.3,164H26.9v8.9h19V164H29.3Zm14.6,7h-15v-5h15Z" transform="translate(-4.9 -15)"/><polygon class="cls-2" points="81.7 21.2 80.3 19.8 64.7 35.2 80.3 50.8 81.7 49.4 67.5 35.2 81.7 21.2"/><polygon class="cls-3" points="111.4 21.2 125.6 35.2 111.4 49.4 112.8 50.8 128.4 35.2 112.8 19.8 111.4 21.2"/><rect class="cls-4" x="84.71" y="49.07" width="32.1" height="2" transform="translate(8.71 106.24) rotate(-65.66)"/></svg>